<svg xmlns="http://www.w3.org/2000/svg" width="1200" height="630" viewBox="0 0 1200 630" role="img" aria-labelledby="title description">
  <title id="title">Kirk Tolleshaug, Senior Backend Software Engineer</title>
  <desc id="description">C# and .NET backend engineering, distributed systems, architecture, and performance.</desc>
  <rect width="1200" height="630" fill="#b8bab0"/>
  <path d="M0 0h818v630H0z" fill="#c9cbc1"/>
  <path d="M0 100h818M0 530h818" stroke="#849188" stroke-width="2"/>
  <g fill="none" stroke="#235543" opacity=".2">
    <circle cx="-52" cy="150" r="190"/>
    <circle cx="-52" cy="150" r="234"/>
    <circle cx="-52" cy="150" r="278" opacity=".45"/>
  </g>
  <text x="82" y="89" fill="#2f6752" font-family="Arial, sans-serif" font-size="19" font-weight="700" letter-spacing="4">KTOLL.DEV  /  BACKEND ENGINEERING</text>
  <text x="82" y="268" fill="#173f32" font-family="Georgia, serif" font-size="104" letter-spacing="-6">Kirk</text>
  <text x="82" y="362" fill="#173f32" font-family="Georgia, serif" font-size="104" letter-spacing="-6">Tolleshaug</text>
  <text x="84" y="426" fill="#45534c" font-family="Arial, sans-serif" font-size="26">Senior Backend Software Engineer</text>
  <g transform="translate(862 78)">
    <rect width="258" height="258" rx="34" fill="#173f32"/>
    <g transform="scale(4.03125)">
      <path fill="#f5f1e8" d="M16 19h5v10l10-10h7L25 32l14 13h-7L21 35v10h-5z"/>
      <path fill="#91c9a5" d="M40 42h12v4H40z"/>
    </g>
  </g>
  <text x="864" y="416" fill="#173f32" font-family="Arial, sans-serif" font-size="17" font-weight="700" letter-spacing="2">C# / .NET</text>
  <text x="864" y="455" fill="#173f32" font-family="Arial, sans-serif" font-size="17" font-weight="700" letter-spacing="2">DISTRIBUTED SYSTEMS</text>
  <text x="864" y="494" fill="#173f32" font-family="Arial, sans-serif" font-size="17" font-weight="700" letter-spacing="2">ARCHITECTURE</text>
  <text x="864" y="533" fill="#173f32" font-family="Arial, sans-serif" font-size="17" font-weight="700" letter-spacing="2">PERFORMANCE</text>
  <circle cx="88" cy="568" r="6" fill="#2f6752"/>
  <text x="108" y="575" fill="#2f6752" font-family="Arial, sans-serif" font-size="17" font-weight="700" letter-spacing="2">VANCOUVER, WASHINGTON</text>
</svg>
